<?xml version="1.0"?>
<svg xmlns="http://www.w3.org/2000/svg" xmlns:xlink="http://www.w3.org/1999/xlink" xmlns:svgjs="http://svgjs.com/svgjs" version="1.1" width="512" height="512" x="0" y="0" viewBox="0 0 512 512" style="enable-background:new 0 0 512 512" xml:space="preserve" class=""><g><path xmlns="http://www.w3.org/2000/svg" d="m467 1h-422c-24.813 0-45 20.187-45 45v360c0 24.813 20.187 45 45 45 89.515 0 81.488.016 82.625-.032l32.918 32.918c5.852 5.854 15.357 5.858 21.213 0l16.045-16.046c4.301 2.06 8.705 3.887 13.198 5.476v22.684c0 8.284 6.716 15 15 15h60c8.284 0 15-6.716 15-15v-22.684c4.493-1.589 8.897-3.416 13.198-5.476l16.045 16.046c5.852 5.854 15.357 5.858 21.213 0l32.888-32.886h82.657c24.813 0 45-20.187 45-45v-360c0-24.813-20.187-45-45-45zm-422 30h422c8.271 0 15 6.729 15 15v75h-452v-75c0-8.271 6.729-15 15-15zm295.85 421.066-13.293-13.293c-4.845-4.846-12.358-5.79-18.25-2.3-8.447 5.003-17.545 8.777-27.041 11.219-6.631 1.704-11.266 7.682-11.266 14.528v18.78h-30v-18.78c0-6.846-4.635-12.823-11.266-14.527-9.496-2.441-18.594-6.216-27.041-11.219-5.895-3.493-13.406-2.545-18.25 2.3l-13.293 13.293-21.217-21.217 13.293-13.293c4.845-4.844 5.791-12.355 2.3-18.25-5.003-8.447-8.777-17.545-11.219-27.041-1.703-6.631-7.681-11.266-14.527-11.266h-18.78v-30h18.78c6.846 0 12.823-4.635 14.527-11.266 2.441-9.496 6.216-18.594 11.219-27.041 3.491-5.895 2.545-13.406-2.3-18.25l-13.293-13.293 21.217-21.217 13.293 13.293c4.843 4.845 12.356 5.79 18.25 2.3 8.447-5.003 17.545-8.777 27.041-11.219 6.631-1.704 11.266-7.682 11.266-14.527v-18.78h30v18.78c0 6.846 4.635 12.823 11.266 14.527 9.496 2.441 18.594 6.216 27.041 11.219 5.893 3.491 13.405 2.544 18.25-2.3l13.293-13.293 21.217 21.217-13.293 13.293c-4.845 4.844-5.791 12.355-2.3 18.25 5.003 8.447 8.777 17.545 11.219 27.041 1.704 6.631 7.682 11.266 14.527 11.266h18.78v30h-18.78c-6.846 0-12.823 4.635-14.527 11.266-2.441 9.496-6.216 18.594-11.219 27.041-3.491 5.895-2.545 13.406 2.3 18.25l13.293 13.293zm126.15-31.066h-72.428c-.76-.871.865.793-16.731-16.802 2.06-4.301 3.887-8.705 5.476-13.198h22.683c8.284 0 15-6.716 15-15v-60c0-8.284-6.716-15-15-15h-22.684c-1.589-4.493-3.416-8.897-5.476-13.198l16.046-16.045c5.854-5.852 5.858-15.357 0-21.213l-42.431-42.431c-5.852-5.854-15.357-5.858-21.213 0l-16.045 16.046c-4.301-2.06-8.705-3.887-13.198-5.476v-22.683c0-8.284-6.716-15-15-15h-60c-8.284 0-15 6.716-15 15v22.684c-4.493 1.589-8.897 3.416-13.198 5.476l-16.045-16.046c-5.852-5.854-15.357-5.858-21.213 0l-42.431 42.431c-5.854 5.852-5.858 15.357 0 21.213l16.046 16.045c-2.06 4.301-3.887 8.705-5.476 13.198h-22.682c-8.284 0-15 6.716-15 15v60c0 8.284 6.716 15 15 15h22.684c1.589 4.493 3.416 8.897 5.476 13.198-17.596 17.595-15.971 15.93-16.731 16.802h-72.429c-8.271 0-15-6.729-15-15v-255.001h452v255c0 8.271-6.729 15-15 15z" fill="#037b87" data-original="#000000" style="" class=""/><path xmlns="http://www.w3.org/2000/svg" d="m256 271c-41.355 0-75 33.645-75 75s33.645 75 75 75 75-33.645 75-75-33.645-75-75-75zm0 120c-24.813 0-45-20.187-45-45s20.187-45 45-45 45 20.187 45 45-20.187 45-45 45z" fill="#037b87" data-original="#000000" style="" class=""/><circle xmlns="http://www.w3.org/2000/svg" cx="76" cy="76" r="15" fill="#037b87" data-original="#000000" style="" class=""/><circle xmlns="http://www.w3.org/2000/svg" cx="136" cy="76" r="15" fill="#037b87" data-original="#000000" style="" class=""/><circle xmlns="http://www.w3.org/2000/svg" cx="196" cy="76" r="15" fill="#037b87" data-original="#000000" style="" class=""/><path xmlns="http://www.w3.org/2000/svg" d="m346 91h90c8.284 0 15-6.716 15-15s-6.716-15-15-15h-90c-8.284 0-15 6.716-15 15s6.716 15 15 15z" fill="#037b87" data-original="#000000" style="" class=""/></g></svg>
