<?xml version="1.0" encoding="utf-8"?>
<svg version="1.1" xmlns:xlink="http://www.w3.org/1999/xlink" width="25px" height="23px" xmlns="http://www.w3.org/2000/svg">
  <g transform="matrix(1 0 0 1 -583 -331 )">
    <path d="M 19.5172991071429 13.5514322916667  C 19.6010044642857 13.6412760416667  19.6428571428571 13.7560763888889  19.6428571428571 13.8958333333333  L 19.6428571428571 18.6875  C 19.6428571428571 19.8754340277778  19.2499069940476 20.8911675347222  18.4640066964286 21.7347005208333  C 17.6781063988095 22.5782335069444  16.7317708333333 23  15.625 23  L 4.01785714285714 23  C 2.91108630952381 23  1.96475074404762 22.5782335069444  1.17885044642857 21.7347005208333  C 0.392950148809524 20.8911675347222  0 19.8754340277778  0 18.6875  L 0 6.22916666666667  C 0 5.04123263888889  0.392950148809524 4.02549913194444  1.17885044642857 3.18196614583333  C 1.96475074404762 2.33843315972222  2.91108630952381 1.91666666666667  4.01785714285714 1.91666666666667  L 13.8392857142857 1.91666666666667  C 13.969494047619 1.91666666666667  14.0764508928571 1.96158854166667  14.16015625 2.05143229166667  C 14.2438616071429 2.14127604166667  14.2857142857143 2.25607638888889  14.2857142857143 2.39583333333333  L 14.2857142857143 3.35416666666667  C 14.2857142857143 3.49392361111111  14.2438616071429 3.60872395833333  14.16015625 3.69856770833333  C 14.0764508928571 3.78841145833333  13.969494047619 3.83333333333333  13.8392857142857 3.83333333333333  L 4.01785714285714 3.83333333333333  C 3.40401785714286 3.83333333333333  2.87853422619048 4.06792534722222  2.44140625 4.537109375  C 2.00427827380952 5.00629340277778  1.78571428571429 5.5703125  2 6.22916666666667  L 2 18.6875  C 1.78571428571429 19.3463541666667  2.00427827380952 19.9103732638889  2.44140625 20.3795572916667  C 2.87853422619048 20.8487413194444  3.40401785714286 21.0833333333333  4.01785714285714 21  L 15.625 21  C 16.2388392857143 21.0833333333333  16.7643229166667 20.8487413194444  17.2014508928571 20.3795572916667  C 17.6385788690476 19.9103732638889  17.8571428571429 19.3463541666667  17.8571428571429 18.6875  L 17.8571428571429 13.8958333333333  C 17.8571428571429 13.7560763888889  17.8989955357143 13.6412760416667  17.9827008928571 13.5514322916667  C 18.06640625 13.4615885416667  18.1733630952381 13.4166666666667  18.3035714285714 13.4166666666667  L 19.1964285714286 13.4166666666667  C 19.3266369047619 13.4166666666667  19.43359375 13.4615885416667  19.5172991071429 13.5514322916667  Z M 24.7349330357143 0.284505208333332  C 24.9116443452381 0.474175347222219  25 0.698784722222219  25 0.958333333333332  L 25 8.625  C 25 8.88454861111111  24.9116443452381 9.10915798611111  24.7349330357143 9.298828125  C 24.5582217261905 9.48849826388889  24.3489583333333 9.58333333333333  24.1071428571429 9.58333333333333  C 23.8653273809524 9.58333333333333  23.6560639880952 9.48849826388889  23.4793526785714 9.298828125  L 21.0239955357143 6.66341145833333  L 11.9280133928571 16.4264322916667  C 11.8350074404762 16.5262586805556  11.7280505952381 16.576171875  11.6071428571429 16.576171875  C 11.4862351190476 16.576171875  11.3792782738095 16.5262586805556  11.2862723214286 16.4264322916667  L 9.69587053571429 14.7194010416667  C 9.60286458333333 14.6195746527778  9.55636160714286 14.5047743055556  9.55636160714286 14.375  C 9.55636160714286 14.2452256944444  9.60286458333333 14.1304253472222  9.69587053571429 14.0305989583333  L 18.7918526785714 4.267578125  L 16.3364955357143 1.63216145833333  C 16.1597842261905 1.44249131944444  16.0714285714286 1.21788194444444  16.0714285714286 0.958333333333332  C 16.0714285714286 0.698784722222219  16.1597842261905 0.474175347222219  16.3364955357143 0.284505208333332  C 16.5132068452381 0.0948350694444459  16.7224702380952 0  16.9642857142857 0  L 24.1071428571429 0  C 24.3489583333333 0  24.5582217261905 0.0948350694444459  24.7349330357143 0.284505208333332  Z " fill-rule="nonzero" fill="#05083b" stroke="none" transform="matrix(1 0 0 1 583 331 )" />
  </g>
</svg>