<?xml version="1.0"?>
<svg xmlns="http://www.w3.org/2000/svg" xmlns:xlink="http://www.w3.org/1999/xlink" xmlns:svgjs="http://svgjs.com/svgjs" version="1.1" width="512" height="512" x="0" y="0" viewBox="0 0 512 512" style="enable-background:new 0 0 512 512" xml:space="preserve" class=""><g><g xmlns="http://www.w3.org/2000/svg"><path d="m96.2 264a158.769 158.769 0 0 0 29.335 84.637l13.038-9.274a142.854 142.854 0 0 1 -26.355-75.363h15.782v-16h-15.782a142.854 142.854 0 0 1 26.351-75.363l-13.038-9.274a158.769 158.769 0 0 0 -29.331 84.637h-17.212a32 32 0 1 0 0 16zm-48.2 8a16 16 0 1 1 16-16 16.019 16.019 0 0 1 -16 16z" fill="#ffaf31" data-original="#000000" style=""/><path d="m464 224a32.058 32.058 0 0 0 -30.988 24h-17.212a158.769 158.769 0 0 0 -29.335-84.637l-13.038 9.274a142.854 142.854 0 0 1 26.355 75.363h-15.782v16h15.782a142.854 142.854 0 0 1 -26.351 75.363l13.038 9.274a158.769 158.769 0 0 0 29.331-84.637h17.208a32 32 0 1 0 30.992-40zm0 48a16 16 0 1 1 16-16 16.019 16.019 0 0 1 -16 16z" fill="#ffaf31" data-original="#000000" style=""/><path d="m108.921 140.907a32.016 32.016 0 0 0 16.256-4.417l34.656 34.657 11.314-11.314-34.657-34.656a32.059 32.059 0 0 0 -4.941-38.883 32 32 0 1 0 -22.628 54.613zm-11.313-43.3a16 16 0 1 1 0 22.628 15.95 15.95 0 0 1 0-22.627z" fill="#ffaf31" data-original="#000000" style=""/><path d="m425.706 380.451a32.059 32.059 0 0 0 -38.883-4.941l-34.656-34.657-11.314 11.314 34.657 34.656a32 32 0 1 0 50.2-6.372zm-11.314 33.941a15.993 15.993 0 1 1 0-22.628 16.02 16.02 0 0 1 0 22.628z" fill="#ffaf31" data-original="#000000" style=""/><path d="m171.147 352.167-11.314-11.314-34.656 34.657a31.99 31.99 0 1 0 6.372 50.2 32.059 32.059 0 0 0 4.941-38.883zm-50.911 62.225a15.994 15.994 0 1 1 0-22.628 16.02 16.02 0 0 1 0 22.628z" fill="#ffaf31" data-original="#000000" style=""/><path d="m340.853 159.833 11.314 11.314 34.656-34.657a32.069 32.069 0 0 0 38.883-4.941 32 32 0 1 0 -50.2-6.372zm50.911-62.225a16 16 0 1 1 0 22.628 15.952 15.952 0 0 1 0-22.628z" fill="#ffaf31" data-original="#000000" style=""/><path d="m348.637 386.469-9.274-13.038a142.854 142.854 0 0 1 -75.363 26.351v-15.782h-16v15.782a142.854 142.854 0 0 1 -75.363-26.351l-9.274 13.038a158.769 158.769 0 0 0 84.637 29.331v17.208a32 32 0 1 0 16 0v-17.208a158.769 158.769 0 0 0 84.637-29.331zm-76.637 77.531a16 16 0 1 1 -16-16 16.019 16.019 0 0 1 16 16z" fill="#ffaf31" data-original="#000000" style=""/><path d="m163.363 125.531 9.274 13.038a142.854 142.854 0 0 1 75.363-26.351v15.782h16v-15.782a142.854 142.854 0 0 1 75.363 26.351l9.274-13.038a158.769 158.769 0 0 0 -84.637-29.331v-17.212a32 32 0 1 0 -16 0v17.212a158.769 158.769 0 0 0 -84.637 29.331zm76.637-77.531a16 16 0 1 1 16 16 16.019 16.019 0 0 1 -16-16z" fill="#ffaf31" data-original="#000000" style=""/><path d="m360 288a8 8 0 0 0 8-8v-48a8 8 0 0 0 -8-8h-22q-.661-1.691-1.391-3.353l15.56-15.559a8 8 0 0 0 0-11.313l-33.941-33.942a8 8 0 0 0 -11.314 0l-15.559 15.56q-1.662-.73-3.353-1.391v-22.002a8 8 0 0 0 -8-8h-48.002a8 8 0 0 0 -8 8v22q-1.691.661-3.353 1.391l-15.559-15.56a8 8 0 0 0 -11.313 0l-33.942 33.942a8 8 0 0 0 0 11.313l15.56 15.559q-.729 1.662-1.39 3.353h-22.003a8 8 0 0 0 -8 8v48a8 8 0 0 0 8 8h22q.66 1.689 1.39 3.353l-15.56 15.559a8 8 0 0 0 0 11.313l33.942 33.942a8 8 0 0 0 11.313 0l15.559-15.56q1.662.73 3.353 1.391v22a8 8 0 0 0 8 8h48a8 8 0 0 0 8-8v-21.996q1.691-.661 3.353-1.391l15.559 15.56a8 8 0 0 0 11.314 0l33.941-33.942a8 8 0 0 0 0-11.313l-15.56-15.559q.73-1.662 1.391-3.353zm-38.711 10.661 13.911 13.907-22.631 22.632-13.908-13.907a8 8 0 0 0 -9.363-1.434 71.631 71.631 0 0 1 -11.695 4.85 8 8 0 0 0 -5.6 7.632v19.659h-32.003v-19.663a8 8 0 0 0 -5.6-7.632 71.663 71.663 0 0 1 -11.7-4.85 8 8 0 0 0 -9.362 1.434l-13.906 13.911-22.632-22.632 13.907-13.907a8 8 0 0 0 1.434-9.362 71.6 71.6 0 0 1 -4.85-11.7 8 8 0 0 0 -7.632-5.6h-19.659v-31.999h19.663a8 8 0 0 0 7.632-5.6 71.6 71.6 0 0 1 4.85-11.7 8 8 0 0 0 -1.434-9.362l-13.911-13.906 22.632-22.632 13.907 13.907a8 8 0 0 0 9.362 1.434 71.663 71.663 0 0 1 11.7-4.85 8 8 0 0 0 5.6-7.632v-19.659h32v19.663a8 8 0 0 0 5.6 7.632 71.631 71.631 0 0 1 11.695 4.85 8 8 0 0 0 9.363-1.434l13.91-13.911 22.631 22.632-13.907 13.907a8 8 0 0 0 -1.434 9.362 71.663 71.663 0 0 1 4.85 11.7 8 8 0 0 0 7.632 5.6h19.659v32h-19.663a8 8 0 0 0 -7.632 5.6 71.663 71.663 0 0 1 -4.85 11.7 8 8 0 0 0 1.434 9.36z" fill="#ffaf31" data-original="#000000" style=""/><path d="m256 200a56 56 0 1 0 56 56 56.064 56.064 0 0 0 -56-56zm0 96a40 40 0 1 1 40-40 40.045 40.045 0 0 1 -40 40z" fill="#ffaf31" data-original="#000000" style=""/><path d="m248 260.687-10.343-10.344-11.314 11.314 16 16a8 8 0 0 0 11.314 0l32-32-11.314-11.314z" fill="#ffaf31" data-original="#000000" style=""/></g></g></svg>
