<?xml version="1.0"?>
<svg xmlns="http://www.w3.org/2000/svg" xmlns:xlink="http://www.w3.org/1999/xlink" xmlns:svgjs="http://svgjs.com/svgjs" version="1.1" width="512" height="512" x="0" y="0" viewBox="0 0 512 512" style="enable-background:new 0 0 512 512" xml:space="preserve" class=""><g><g xmlns="http://www.w3.org/2000/svg"><path d="m192.25 437c-12.407 0-22.5 10.094-22.5 22.5s10.094 22.5 22.5 22.5 22.5-10.094 22.5-22.5-10.093-22.5-22.5-22.5zm0 30c-4.136 0-7.5-3.364-7.5-7.5s3.365-7.5 7.5-7.5 7.5 3.364 7.5 7.5-3.364 7.5-7.5 7.5z" fill="#f3b540" data-original="#000000" style=""/><path d="m184.75 497h15v15h-15z" fill="#f3b540" data-original="#000000" style=""/><path d="m109.751 266.249h60v15h-60z" fill="#f3b540" data-original="#000000" style=""/><path d="m109.751 228.749h60v15h-60z" fill="#f3b540" data-original="#000000" style=""/><path d="m109.751 191.25h60v15h-60z" fill="#f3b540" data-original="#000000" style=""/><path d="m109.751 153.75h60v15h-60z" fill="#f3b540" data-original="#000000" style=""/><path d="m327.25 150c-15.151 0-29.469 4.907-41.405 14.191l9.209 11.84c9.279-7.217 20.412-11.031 32.196-11.031 28.949 0 52.5 23.552 52.5 52.5s-23.551 52.499-52.5 52.499c-28.948 0-52.5-23.551-52.5-52.499 0-11.785 3.814-22.919 11.031-32.197l-11.84-9.209c-9.284 11.937-14.191 26.254-14.191 41.406 0 37.219 30.28 67.499 67.5 67.499s67.5-30.28 67.5-67.499c0-37.22-30.28-67.5-67.5-67.5z" fill="#f3b540" data-original="#000000" style=""/><path d="m462.25 244.615v-54.231h-22.824c-2.808-11.69-7.395-22.755-13.69-33.024l16.147-16.146-38.347-38.346-16.147 16.146c-10.272-6.296-21.336-10.883-33.022-13.689v-22.826h-19.617v-44.999c0-20.678-16.822-37.5-37.5-37.5h-210c-20.677 0-37.5 16.822-37.5 37.5v437c0 20.678 16.822 37.5 37.5 37.5h82.5v-15h-82.5c-12.406 0-22.5-10.094-22.5-22.5v-52.499h255v52.499c0 12.406-10.093 22.5-22.5 22.5h-82.5v15h82.5c20.678 0 37.5-16.822 37.5-37.5v-122h19.616v-22.825c11.693-2.808 22.756-7.394 33.024-13.688l16.146 16.146 38.347-38.347-16.147-16.146c6.297-10.271 10.883-21.336 13.69-33.023h22.824zm-229.635-229.615-7.5 15h-65.73l-7.5-15zm87.135 392.001h-255v-369.501c0-12.406 10.093-22.5 22.5-22.5h47.866l14.999 30h84.271l14.999-30h47.866c12.407 0 22.5 10.094 22.5 22.5v44.999h-19.615v22.826c-11.692 2.808-22.756 7.394-33.024 13.688l-16.147-16.146-38.346 38.347 16.146 16.146c-6.296 10.272-10.883 21.337-13.689 33.023h-22.826v54.231h22.825c2.808 11.691 7.395 22.756 13.689 33.022l-16.146 16.147 38.347 38.347 16.147-16.147c10.272 6.298 21.337 10.885 33.024 13.691v22.826h19.615v54.501zm106.224-171.241c-2.559 13.93-7.947 26.927-16.013 38.63l-3.545 5.143 14.253 14.253-17.134 17.134-14.253-14.253-5.143 3.546c-11.695 8.062-24.692 13.448-38.63 16.012l-6.144 1.129v20.146h-24.231v-20.148l-6.145-1.129c-13.928-2.559-26.925-7.946-38.63-16.014l-5.143-3.544-14.253 14.254-17.134-17.134 14.253-14.255-3.545-5.143c-8.062-11.695-13.449-24.691-16.012-38.629l-1.13-6.144h-20.145v-24.231h20.148l1.129-6.145c2.559-13.929 7.946-26.925 16.013-38.63l3.544-5.143-14.253-14.253 17.133-17.134 14.254 14.254 5.143-3.546c11.696-8.063 24.693-13.45 38.629-16.011l6.145-1.13v-20.146h24.231v20.149l6.145 1.129c13.928 2.559 26.925 7.945 38.629 16.012l5.143 3.544 14.253-14.253 17.133 17.133-14.253 14.253 3.545 5.144c8.064 11.698 13.452 24.695 16.013 38.63l1.129 6.145h20.147v24.231h-20.147z" fill="#f3b540" data-original="#000000" style=""/><path d="m347.591 214.529h15v15h-15z" fill="#f3b540" data-original="#000000" style=""/><path d="m332.591 184.53h15v15h-15z" fill="#f3b540" data-original="#000000" style=""/></g></g></svg>
