<?xml version="1.0"?>
<svg xmlns="http://www.w3.org/2000/svg" xmlns:xlink="http://www.w3.org/1999/xlink" xmlns:svgjs="http://svgjs.com/svgjs" version="1.1" width="512" height="512" x="0" y="0" viewBox="0 0 517.395 517.395" style="enable-background:new 0 0 512 512" xml:space="preserve" class=""><g><g xmlns="http://www.w3.org/2000/svg"><path d="m397.204 156.407h12.079v47.674c0 4.143 3.357 7.5 7.5 7.5s7.5-3.357 7.5-7.5v-47.674h12.078c4.143 0 7.5-3.357 7.5-7.5s-3.357-7.5-7.5-7.5h-12.078v-21.79c0-4.188 3.406-7.594 7.594-7.594h17.772c4.143 0 7.5-3.357 7.5-7.5s-3.357-7.5-7.5-7.5h-17.772c-12.458 0-22.594 10.136-22.594 22.594v21.79h-12.079c-4.143 0-7.5 3.357-7.5 7.5s3.358 7.5 7.5 7.5zm-135.809-112.95c4.142 0 7.5-3.358 7.5-7.5s-3.358-7.5-7.5-7.5-7.5 3.358-7.5 7.5 3.357 7.5 7.5 7.5zm-162.033 130.314c12.406 0 22.5-10.094 22.5-22.5s-10.094-22.5-22.5-22.5-22.5 10.094-22.5 22.5 10.094 22.5 22.5 22.5zm0-30c4.136 0 7.5 3.364 7.5 7.5s-3.364 7.5-7.5 7.5-7.5-3.364-7.5-7.5 3.365-7.5 7.5-7.5zm30 60c12.406 0 22.5-10.094 22.5-22.5v-60c0-12.406-10.094-22.5-22.5-22.5h-60c-12.406 0-22.5 10.094-22.5 22.5v60c0 12.406 10.094 22.5 22.5 22.5zm-67.5-22.5v-60c0-4.136 3.364-7.5 7.5-7.5h60c4.136 0 7.5 3.364 7.5 7.5v60c0 4.136-3.364 7.5-7.5 7.5h-60c-4.135 0-7.5-3.365-7.5-7.5zm82.954 133.598c-3.641-2.739-8.46-3.199-12.579-1.204-1.01.489-2.071.859-3.154 1.102-1.322.295-2.668.405-4.024.322-4.42-4.062-10.044-6.493-16.121-6.916-7.083-.501-13.947 1.802-19.311 6.466-4.948 4.304-8.09 10.218-8.923 16.626-8.727-1.407-16.722-5.824-22.618-12.646-2.419-2.801-6.167-4.053-9.772-3.272-3.587.776-6.458 3.448-7.493 6.97-2.523 8.571-7.848 34.828 14.316 52.334-4.23 1.29-9.054 1.193-11.521 5.477-2.224 3.862-1.035 8.411-.128 10.78 1.772 4.626 6.396 7.956 13.741 9.897 4.009 1.06 9.249 1.745 15.154 1.745 13.696-.001 30.955-3.688 44.632-14.936 13.631-11.211 19.205-26.495 21.453-38.092 3.499-3.988 6.271-8.489 8.254-13.411 1.24-3.08 2.153-6.304 2.716-9.585.765-4.472-1.005-8.939-4.622-11.657zm-18.729 25.959c-1.062 1.097-1.766 2.491-2.014 3.998-1.531 9.271-5.651 22.21-16.586 31.203-13.221 10.872-31.83 12.399-42.532 11.021 3.571-1.482 6.994-3.322 10.18-5.485 2.253-1.529 3.501-4.159 3.259-6.872-.242-2.712-1.936-5.08-4.425-6.187-18.675-8.301-21.617-22.431-20.457-33.514 9.708 7.864 21.929 12.097 34.665 11.739 4.065-.105 7.306-3.431 7.306-7.497v-4.265c0-.033 0-.067-.001-.101-.046-3.42 1.408-6.669 3.989-8.913 2.339-2.035 5.33-3.033 8.424-2.821 3.093.216 5.917 1.623 7.951 3.962 1.091 1.254 2.565 2.109 4.195 2.434 4.439.883 8.932.769 13.27-.356-1.531 4.36-3.987 8.313-7.224 11.654zm297.34-79.462c-.178 0-.354.007-.532.008v-16.142c.178.001.354.007.532.007 51.814 0 93.968-42.153 93.968-93.968 0-52.025-42.494-94.256-94.5-93.961v-7.112c0-26.191-21.309-47.5-47.5-47.5h-228c-26.191 0-47.5 21.309-47.5 47.5v7.112c-18.374-.107-36.202 5.094-51.558 15.041-3.477 2.252-4.47 6.896-2.218 10.372 2.253 3.477 6.896 4.47 10.372 2.218 12.763-8.268 27.588-12.638 42.871-12.638 43.543 0 78.968 35.425 78.968 78.968s-35.425 78.968-78.968 78.968-78.968-35.425-78.968-78.968c0-15.786 4.641-31.02 13.419-44.054 2.313-3.436 1.404-8.096-2.031-10.41-3.436-2.312-8.096-1.404-10.41 2.031-10.452 15.52-15.978 33.65-15.978 52.433 0 51.814 42.153 93.968 93.968 93.968.178 0 .354-.006.532-.007v16.327c-1.961-.123-3.936-.192-5.927-.192-51.814-.001-93.967 42.153-93.967 93.967s42.153 93.969 93.968 93.969c1.991 0 3.966-.07 5.927-.192v18.087c0 26.191 21.309 47.5 47.5 47.5h228c26.191 0 47.5-21.309 47.5-47.5v-17.901c.178.001.354.007.532.007 51.814 0 93.968-42.154 93.968-93.969s-42.154-93.969-93.968-93.969zm0-189.063c43.543 0 78.968 35.425 78.968 78.968s-35.425 78.968-78.968 78.968-78.968-35.425-78.968-78.968 35.425-78.968 78.968-78.968zm-15.532 171.644v18.693c-5.128.846-10.141 2.111-15 3.77v-26.268c4.834 1.666 9.847 2.945 15 3.805zm-278-188.75v7.201c-4.835-1.666-9.847-2.944-15-3.805v-8.396c0-17.921 14.579-32.5 32.5-32.5h228c17.921 0 32.5 14.579 32.5 32.5v8.396c-5.153.861-10.165 2.139-15 3.805v-7.201c0-12.406-10.094-22.5-22.5-22.5h-27.55c-8.547 0-15.5 6.953-15.5 15.5 0 3.319-2.701 6.02-6.021 6.02h-119.859c-3.319 0-6.021-2.7-6.021-6.02 0-4.145-1.611-8.038-4.557-10.983-2.935-2.912-6.82-4.517-10.943-4.517h-27.55c-12.406 0-22.499 10.094-22.499 22.5zm-15 188.75c5.153-.861 10.165-2.139 15-3.805v28.368c-4.813-1.999-9.825-3.611-15-4.792zm-20.927 190.356c-43.543 0-78.968-35.425-78.968-78.969 0-43.543 35.425-78.968 78.968-78.968s78.968 35.425 78.968 78.968c0 46.025-36.331 78.969-78.968 78.969zm313.927 32.894c0 17.921-14.579 32.5-32.5 32.5h-228c-17.921 0-32.5-14.579-32.5-32.5v-20.246c5.175-1.181 10.187-2.794 15-4.793v20.039c0 12.406 10.094 22.5 22.5 22.5h218c12.406 0 22.5-10.094 22.5-22.5v-17.99c4.835 1.666 9.847 2.944 15 3.805zm15.532-32.894c-43.543 0-78.968-35.425-78.968-78.969 0-6.767.855-13.484 2.544-19.965 1.044-4.009-1.359-8.104-5.367-9.148-4.009-1.046-8.104 1.359-9.148 5.367-2.01 7.715-3.028 15.704-3.028 23.746 0 35.305 19.574 66.119 48.436 82.175v24.688c0 4.136-3.364 7.5-7.5 7.5h-218c-4.136 0-7.5-3.364-7.5-7.5v-27.927c25.88-16.755 43.041-45.878 43.041-78.936s-17.161-62.181-43.041-78.936v-42.954c28.862-16.056 48.436-46.87 48.436-82.174s-19.574-66.118-48.436-82.174v-13.899c0-4.136 3.364-7.5 7.5-7.5h27.55c.141 0 .268.055.356.144.129.128.144.265.144.356 0 11.59 9.43 21.02 21.021 21.02h119.859c11.591 0 21.021-9.43 21.021-21.02 0-.275.225-.5.5-.5h27.55c4.136 0 7.5 3.364 7.5 7.5v13.899c-28.862 16.056-48.436 46.87-48.436 82.174 0 35.326 19.598 66.156 48.489 82.204-.032.283-.053.57-.053.862v38.729c-11.06 6.132-20.911 14.542-28.927 24.939-2.529 3.28-1.92 7.989 1.36 10.519 3.282 2.53 7.989 1.922 10.519-1.36 15.089-19.58 37.575-30.797 62.58-30.797 43.543 0 78.968 35.425 78.968 78.968-.002 43.544-35.427 78.969-78.97 78.969zm-134.548-178.086c-3.541-2.147-8.153-1.021-10.304 2.519-1.39 2.289-3.349 4.25-5.598 5.705-2.167 1.402-4.989 1.442-7.193.104l-11.225-6.814c-2.238-1.359-3.462-3.968-3.209-6.613.25-2.61 1.102-5.175 2.463-7.416 2.15-3.541 1.023-8.153-2.517-10.304-3.539-2.15-8.153-1.024-10.304 2.517-2.528 4.163-4.11 8.926-4.577 13.802l-.014.151c-.792 8.258 3.279 16.376 10.371 20.685l11.225 6.814c3.452 2.097 7.375 3.142 11.296 3.142 4.134 0 8.266-1.162 11.838-3.477 4.139-2.682 7.708-6.295 10.266-10.51 2.15-3.543 1.022-8.155-2.518-10.305zm174.013 91.075-52.588-30.377c-6.802-4.004-15.666 1.201-15.607 9.01v60.755c-.07 7.791 8.859 12.99 15.606 9.01l52.588-30.376c6.8-3.854 6.775-14.186.001-18.022zm-53.196 31.426v-44.831l38.806 22.416zm-150.122-187.936c-34.855.914-63.84 28.876-65.986 63.658-.548 8.858.603 17.583 3.418 25.937l-7.986 22.719c-1.481 4.212-.439 8.789 2.717 11.946 3.156 3.156 7.734 4.197 11.945 2.717l15.839-5.567c12.427 9.742 27.965 14.847 43.755 14.419 36.303-.984 65.937-31.347 66.058-67.682.062-18.53-7.202-35.868-20.454-48.82-13.249-12.95-30.769-19.824-49.306-19.327zm3.295 120.834c-12.385.315-24.521-3.684-34.206-11.318-2.646-2.087-5.832-3.172-9.058-3.172-1.609 0-3.229.27-4.795.821l-9.221 3.241 5.627-16.007c1.072-3.049 1.095-6.395.062-9.421-2.236-6.56-3.151-13.422-2.721-20.396 1.673-27.095 24.254-48.876 51.408-49.589 14.457-.392 28.104 4.97 38.428 15.06 10.326 10.093 15.986 23.604 15.938 38.042-.093 28.314-23.18 51.972-51.462 52.739z" fill="#efc317" data-original="#000000" style="" class=""/></g></g></svg>
