<?xml version="1.0" encoding="utf-8"?>
<svg version="1.1" xmlns:xlink="http://www.w3.org/1999/xlink" width="45px" height="45px" xmlns="http://www.w3.org/2000/svg">
  <defs>
    <linearGradient gradientUnits="userSpaceOnUse" x1="22.5" y1="0" x2="22.5" y2="45" id="LinearGradient31">
      <stop id="Stop32" stop-color="#06052b" stop-opacity="0.737254901960784" offset="0" />
      <stop id="Stop33" stop-color="#000000" offset="1" />
    </linearGradient>
  </defs>
  <g transform="matrix(1 0 0 1 -1029 -1869 )">
    <path d="M 44.1051136363636 17.2585227272727  C 44.7017045454545 17.8551136363636  45 18.5795454545455  45 19.4318181818182  L 45 25.5681818181818  C 45 26.4204545454545  44.7017045454545 27.1448863636364  44.1051136363636 27.7414772727273  C 43.5085227272727 28.3380681818182  42.7840909090909 28.6363636363636  41.9318181818182 28  L 28 28  L 28 41.9318181818182  C 28.6363636363636 42.7840909090909  28.3380681818182 43.5085227272727  27.7414772727273 44.1051136363636  C 27.1448863636364 44.7017045454545  26.4204545454545 45  25.5681818181818 45  L 19.4318181818182 45  C 18.5795454545455 45  17.8551136363636 44.7017045454545  17.2585227272727 44.1051136363636  C 16.6619318181818 43.5085227272727  16.3636363636364 42.7840909090909  17 41.9318181818182  L 17 28  L 3.06818181818182 28  C 2.21590909090909 28.6363636363636  1.49147727272727 28.3380681818182  0.894886363636364 27.7414772727273  C 0.298295454545455 27.1448863636364  0 26.4204545454545  0 25.5681818181818  L 0 19.4318181818182  C 0 18.5795454545455  0.298295454545455 17.8551136363636  0.894886363636364 17.2585227272727  C 1.49147727272727 16.6619318181818  2.21590909090909 16.3636363636364  3.06818181818182 17  L 17 17  L 17 3.06818181818182  C 16.3636363636364 2.21590909090909  16.6619318181818 1.49147727272727  17.2585227272727 0.894886363636364  C 17.8551136363636 0.298295454545453  18.5795454545455 0  19.4318181818182 0  L 25.5681818181818 0  C 26.4204545454545 0  27.1448863636364 0.298295454545453  27.7414772727273 0.894886363636364  C 28.3380681818182 1.49147727272727  28.6363636363636 2.21590909090909  28 3.06818181818182  L 28 17  L 41.9318181818182 17  C 42.7840909090909 16.3636363636364  43.5085227272727 16.6619318181818  44.1051136363636 17.2585227272727  Z " fill-rule="nonzero" fill="url(#LinearGradient31)" stroke="none" transform="matrix(1 0 0 1 1029 1869 )" />
  </g>
</svg>