<svg id="Capa_1" enable-background="new 0 0 512 512" height="512" viewBox="0 0 512 512" width="512" xmlns="http://www.w3.org/2000/svg"><g><g><path clip-rule="evenodd" d="m76.412 39.861h-29.084c-5.928 0-10.775 4.848-10.775 10.776v424.949c0 5.928 4.847 10.805 10.775 10.805h301.124c-2.511-15.711-7.505-30.166-16.616-39.861z" fill="#b6c4cf" fill-rule="evenodd"/></g><g><path clip-rule="evenodd" d="m418.68 369.698v-358.922c0-5.928-4.847-10.776-10.775-10.776h-320.718c-5.927 0-10.775 4.848-10.775 10.776v29.085 395.863c0 5.957 4.847 10.805 10.775 10.805h244.648c36.736-1.314 86.904-33.144 86.845-76.831z" fill="#eff6ff" fill-rule="evenodd"/></g><g><path d="m325.061 95.537h-155.03c-4.267 0-7.726-3.459-7.726-7.726 0-4.268 3.459-7.726 7.726-7.726h155.03c4.267 0 7.726 3.459 7.726 7.726s-3.459 7.726-7.726 7.726zm45.671-36.357h-246.371c-4.267 0-7.726-3.459-7.726-7.726s3.459-7.726 7.726-7.726h246.371c4.267 0 7.726 3.459 7.726 7.726s-3.459 7.726-7.726 7.726z" fill="#2b4d66"/></g><g><path d="m143.691 181.596c-1.822 0-3.594-.645-4.995-1.832l-19.331-16.382c-3.255-2.759-3.658-7.634-.899-10.889 2.759-3.256 7.634-3.658 10.89-.899l13.404 11.359 31.424-37.498c2.74-3.271 7.613-3.701 10.885-.959 3.271 2.74 3.7 7.614.959 10.884l-36.414 43.453c-1.321 1.576-3.216 2.56-5.265 2.735-.22.019-.439.028-.658.028z" fill="#3bc3a4"/></g><g><path d="m143.691 255.331c-1.822 0-3.594-.645-4.995-1.832l-19.331-16.382c-3.255-2.759-3.658-7.634-.899-10.889 2.759-3.257 7.634-3.657 10.89-.899l13.404 11.359 31.424-37.498c2.74-3.27 7.613-3.702 10.885-.959 3.271 2.74 3.7 7.614.959 10.884l-36.414 43.453c-1.321 1.576-3.216 2.56-5.265 2.735-.22.019-.439.028-.658.028z" fill="#3bc3a4"/></g><g><path d="m143.691 329.066c-1.822 0-3.594-.645-4.995-1.832l-19.331-16.382c-3.255-2.759-3.658-7.634-.899-10.889 2.759-3.256 7.634-3.657 10.89-.899l13.404 11.359 31.424-37.498c2.74-3.27 7.613-3.702 10.885-.959 3.271 2.74 3.7 7.614.959 10.884l-36.414 43.453c-1.321 1.576-3.216 2.56-5.265 2.735-.22.019-.439.028-.658.028z" fill="#3bc3a4"/></g><g><path d="m143.691 402.801c-1.824 0-3.598-.646-5-1.836l-19.331-16.411c-3.253-2.762-3.651-7.638-.889-10.89 2.761-3.254 7.636-3.652 10.89-.89l13.401 11.377 31.42-37.518c2.74-3.272 7.613-3.7 10.884-.963 3.272 2.739 3.703 7.613.963 10.884l-36.414 43.482c-1.321 1.577-3.218 2.563-5.269 2.737-.218.019-.437.028-.655.028z" fill="#3bc3a4"/></g><g><path d="m307.891 178.062h-88.013c-4.267 0-7.726-3.459-7.726-7.726s3.459-7.726 7.726-7.726h88.013c4.267 0 7.726 3.459 7.726 7.726s-3.459 7.726-7.726 7.726z" fill="#2b4d66"/></g><g><path d="m370.06 141.676h-91.37c-4.267 0-7.726-3.459-7.726-7.726 0-4.268 3.459-7.726 7.726-7.726h91.371c4.267 0 7.726 3.459 7.726 7.726s-3.46 7.726-7.727 7.726zm-127.902 0h-22.28c-4.267 0-7.726-3.459-7.726-7.726 0-4.268 3.459-7.726 7.726-7.726h22.28c4.267 0 7.726 3.459 7.726 7.726.001 4.267-3.458 7.726-7.726 7.726z" fill="#2b4d66"/></g><g><path d="m307.891 251.798h-88.013c-4.267 0-7.726-3.459-7.726-7.726s3.459-7.726 7.726-7.726h88.013c4.267 0 7.726 3.459 7.726 7.726s-3.459 7.726-7.726 7.726z" fill="#2b4d66"/></g><g><path d="m370.06 289.147h-150.182c-4.267 0-7.726-3.459-7.726-7.726s3.459-7.726 7.726-7.726h150.182c4.267 0 7.726 3.459 7.726 7.726s-3.459 7.726-7.726 7.726z" fill="#2b4d66"/></g><g><path d="m289.027 399.268h-69.148c-4.267 0-7.726-3.459-7.726-7.726 0-4.268 3.459-7.726 7.726-7.726h69.148c4.267 0 7.726 3.459 7.726 7.726s-3.459 7.726-7.726 7.726z" fill="#2b4d66"/></g><g><path d="m370.06 215.411h-22.28c-4.267 0-7.726-3.459-7.726-7.726 0-4.268 3.459-7.726 7.726-7.726h22.281c4.267 0 7.726 3.459 7.726 7.726 0 4.268-3.46 7.726-7.727 7.726zm-58.782 0h-91.4c-4.267 0-7.726-3.459-7.726-7.726 0-4.268 3.459-7.726 7.726-7.726h91.4c4.267 0 7.726 3.459 7.726 7.726.001 4.268-3.459 7.726-7.726 7.726z" fill="#2b4d66"/></g><g><path d="m307.891 325.532h-42.225c-4.267 0-7.726-3.459-7.726-7.726s3.459-7.726 7.726-7.726h42.225c4.267 0 7.726 3.459 7.726 7.726s-3.459 7.726-7.726 7.726zm-69.616 0h-18.396c-4.267 0-7.726-3.459-7.726-7.726s3.459-7.726 7.726-7.726h18.396c4.267 0 7.726 3.459 7.726 7.726s-3.459 7.726-7.726 7.726z" fill="#2b4d66"/></g><g><path d="m320.885 362.882h-101.007c-4.267 0-7.726-3.459-7.726-7.726s3.459-7.726 7.726-7.726h101.007c4.267 0 7.726 3.459 7.726 7.726s-3.459 7.726-7.726 7.726z" fill="#2b4d66"/></g><g><path clip-rule="evenodd" d="m418.68 380.007v-369.231c0-5.928-4.847-10.776-10.775-10.776h-29.318c-5.928 0 10.775 4.848 10.775 10.776v368.997c4.555-.905 9.111-1.372 14.133-1.372 5.023-.001 10.309.554 15.185 1.606z" fill="#d9eeff" fill-rule="evenodd"/></g><g><path clip-rule="evenodd" d="m475.448 440.046c0-34.517-24.325-63.368-56.767-70.348-4.877-1.051-9.987-1.606-15.185-1.606-39.743 0-71.952 32.21-71.952 71.954 0 2.19.088 4.351.292 6.483 1.343 15.097 7.359 28.881 16.616 39.861 13.198 15.652 32.968 25.61 55.044 25.61 39.743 0 71.952-32.21 71.952-71.954z" fill="#3bc3a4" fill-rule="evenodd"/></g><g><path d="m396.429 465.077c-1.876 0-3.696-.683-5.114-1.935l-15.477-13.666c-3.199-2.825-3.502-7.707-.678-10.905 2.825-3.198 7.707-3.503 10.906-.678l9.417 8.315 24.072-29.885c2.676-3.322 7.54-3.846 10.864-1.17 3.323 2.677 3.847 7.54 1.171 10.864l-29.143 36.181c-1.323 1.643-3.261 2.673-5.364 2.851-.219.019-.437.028-.654.028z" fill="#eff6ff"/></g><g><path clip-rule="evenodd" d="m475.448 440.046c0-34.517-24.325-63.368-56.767-70.348-4.877-1.051-9.987-1.606-15.185-1.606-3.212 0-6.395.204-9.52.613 8.702 2.161 16.762 5.87 23.857 10.863.175.117.38.234.555.38 18.28 13.024 30.223 34.429 30.223 58.609 0 36.532-27.216 66.698-62.432 71.341 5.548 1.372 11.33 2.103 17.316 2.103 39.744-.001 71.953-32.211 71.953-71.955z" fill="#00a887" fill-rule="evenodd"/></g></g></svg>