<?xml version="1.0"?>
<svg xmlns="http://www.w3.org/2000/svg" xmlns:xlink="http://www.w3.org/1999/xlink" xmlns:svgjs="http://svgjs.com/svgjs" version="1.1" width="512" height="512" x="0" y="0" viewBox="0 0 512 512" style="enable-background:new 0 0 512 512" xml:space="preserve"><g><g xmlns="http://www.w3.org/2000/svg"><path d="m176 48h64a8 8 0 0 0 0-16h-64a8 8 0 0 0 0 16z" fill="#199ad9" data-original="#000000" style=""/><path d="m216 464h-16a8 8 0 0 0 0 16h16a8 8 0 0 0 0-16z" fill="#199ad9" data-original="#000000" style=""/><path d="m460 168h-68v-132a28.031 28.031 0 0 0 -28-28h-312a28.031 28.031 0 0 0 -28 28v440a28.031 28.031 0 0 0 28 28h408a28.031 28.031 0 0 0 28-28v-280a28.031 28.031 0 0 0 -28-28zm-46.25 16-4 16h-51.5l-4-16zm-361.75 304a12.01 12.01 0 0 1 -12-12v-440a12.01 12.01 0 0 1 12-12h312a12.01 12.01 0 0 1 12 12v132h-8v-104a8 8 0 0 0 -8-8h-304a8 8 0 0 0 -8 8v384a8 8 0 0 0 8 8h224v20a27.75 27.75 0 0 0 2.71 12zm228-292v244h-216v-368h288v96h-44a28.031 28.031 0 0 0 -28 28zm192 280a12.01 12.01 0 0 1 -12 12h-152a12.01 12.01 0 0 1 -12-12v-280a12.01 12.01 0 0 1 12-12h29.75l6.49 25.94a8 8 0 0 0 7.76 6.06h64a8 8 0 0 0 7.76-6.06l6.49-25.94h29.75a12.01 12.01 0 0 1 12 12z" fill="#199ad9" data-original="#000000" style=""/><path d="m400 464h-32a8 8 0 0 0 0 16h32a8 8 0 0 0 0-16z" fill="#199ad9" data-original="#000000" style=""/></g></g></svg>
