<?xml version="1.0"?>
<svg xmlns="http://www.w3.org/2000/svg" xmlns:xlink="http://www.w3.org/1999/xlink" xmlns:svgjs="http://svgjs.com/svgjs" version="1.1" width="512" height="512" x="0" y="0" viewBox="0 0 512 512" style="enable-background:new 0 0 512 512" xml:space="preserve" class=""><g><title xmlns="http://www.w3.org/2000/svg">Maintenance Check mark</title><path xmlns="http://www.w3.org/2000/svg" d="M65.328,290.858l36.338,3.5A156.943,156.943,0,0,0,120.1,338.146L96.965,366.083a7,7,0,0,0,.441,9.415l39.345,39.344a7,7,0,0,0,9.415.442l27.984-23.175a160.443,160.443,0,0,0,43.739,18.472l3.5,36.215a6.892,6.892,0,0,0,6.967,6.2h55.78a6.892,6.892,0,0,0,6.967-6.2l3.5-36.275a156.828,156.828,0,0,0,43.788-18.4l27.936,23.151a7,7,0,0,0,9.415-.434l39.345-39.34a7,7,0,0,0,.441-9.413L392.358,338.1a160.453,160.453,0,0,0,18.473-43.744l35.849-3.5A7,7,0,0,0,453,283.89V228.11a7,7,0,0,0-6.328-6.968l-36.338-3.5A156.943,156.943,0,0,0,391.9,173.854l23.135-27.937a7,7,0,0,0-.41-9.383L375.778,97.189a7,7,0,0,0-9.446-.473l-27.984,23.175a160.443,160.443,0,0,0-43.739-18.472l-3.5-36.215a6.892,6.892,0,0,0-6.967-6.2h-55.78a6.892,6.892,0,0,0-6.967,6.2l-3.5,36.275a156.816,156.816,0,0,0-43.786,18.4L146.166,96.732a7,7,0,0,0-9.415.433L97.406,136.506a7,7,0,0,0-.441,9.413L120.14,173.9a160.463,160.463,0,0,0-18.472,43.738l-36.34,3.5A7,7,0,0,0,59,228.11v55.78A7,7,0,0,0,65.328,290.858ZM73,234.468l35.009-3.374a7,7,0,0,0,6.17-5.489,146.6,146.6,0,0,1,20.455-48.484,7,7,0,0,0-.49-8.26L111.812,141.9l30.333-30.333L169.11,133.9a7,7,0,0,0,8.348.433,142.239,142.239,0,0,1,48.4-20.4,6.86,6.86,0,0,0,5.489-6.046L234.717,73h43.064l3.374,34.884a6.93,6.93,0,0,0,5.489,6.108,146.527,146.527,0,0,1,48.484,20.424,7,7,0,0,0,8.26-.506L370.322,111.6l29.892,30.271-22.358,27a7,7,0,0,0-.432,8.347,142.265,142.265,0,0,1,20.4,48.4,7,7,0,0,0,6.17,5.488L439,234.468V277.54l-34.519,3.367a7,7,0,0,0-6.162,5.488,146.614,146.614,0,0,1-20.455,48.484,7,7,0,0,0,.49,8.26L400.686,370.1l-30.332,30.333-26.966-22.332a7,7,0,0,0-8.348-.433,142.239,142.239,0,0,1-48.4,20.4,6.86,6.86,0,0,0-5.489,6.046L277.781,439H234.717l-3.374-34.884a6.93,6.93,0,0,0-5.489-6.108,146.527,146.527,0,0,1-48.484-20.424,7,7,0,0,0-8.26.506l-26.965,22.339L111.812,370.1l22.332-26.964a7,7,0,0,0,.432-8.347,142.265,142.265,0,0,1-20.4-48.4,7,7,0,0,0-6.17-5.488L73,277.532Z" fill="#199ad9" data-original="#000000" style="" class=""/><path xmlns="http://www.w3.org/2000/svg" d="M256.249,371.6A115.6,115.6,0,1,0,140.648,256,115.732,115.732,0,0,0,256.249,371.6Zm0-217.2A101.6,101.6,0,1,1,154.648,256,101.717,101.717,0,0,1,256.249,154.4Z" fill="#199ad9" data-original="#000000" style="" class=""/><path xmlns="http://www.w3.org/2000/svg" d="M238.234,289.261a7,7,0,0,0,9.78,0l57.876-56.505a7,7,0,1,0-9.78-10.017L243.124,274.47,215.89,247.88a7,7,0,1,0-9.78,10.018Z" fill="#199ad9" data-original="#000000" style="" class=""/></g></svg>
