<?xml version="1.0" encoding="iso-8859-1"?>
<!-- Generator: Adobe Illustrator 19.0.0, SVG Export Plug-In . SVG Version: 6.00 Build 0)  -->
<svg version="1.1" id="Capa_1" xmlns="http://www.w3.org/2000/svg" xmlns:xlink="http://www.w3.org/1999/xlink" x="0px" y="0px"
	 viewBox="0 0 512 512" style="enable-background:new 0 0 512 512;" xml:space="preserve">
<g>
	<path style="fill:#2980BA;" d="M459.034,414.897v-26.483H52.966v26.483L0,476.69v26.483C0,508.048,3.952,512,8.828,512h494.345
		c4.875,0,8.828-3.952,8.828-8.828V476.69L459.034,414.897z"/>
	<rect x="79.448" y="44.138" style="fill:#285680;" width="353.103" height="397.241"/>
	<g>
		<rect x="52.966" y="44.138" style="fill:#2980BA;" width="52.966" height="406.069"/>
		<rect x="406.069" y="44.138" style="fill:#2980BA;" width="52.966" height="406.069"/>
	</g>
	<g>
		<path style="fill:#3B97D3;" d="M17.655,0h476.69C504.095,0,512,7.904,512,17.655v44.138c0,9.751-7.905,17.655-17.655,17.655
			H17.655C7.904,79.448,0,71.544,0,61.793V17.655C0,7.904,7.904,0,17.655,0z"/>
		<polygon style="fill:#3B97D3;" points="512,476.69 459.034,414.897 52.966,414.897 0,476.69 		"/>
	</g>
	<path style="fill:#2C2F38;" d="M344.276,211.862c-4.875,0-8.828-3.952-8.828-8.828c0-43.802-31.868-79.448-71.044-79.448h-7.945
		c-39.212,0-71.08,35.646-71.08,79.448c0,4.875-3.952,8.828-8.828,8.828s-8.828-3.952-8.828-8.828
		c0-53.539,39.786-97.103,88.7-97.103h7.945c48.949,0,88.735,43.564,88.735,97.103C353.103,207.91,349.151,211.862,344.276,211.862z
		"/>
	<g>
		<path style="fill:#ECF0F1;" d="M167.724,203.034h35.31V256h-35.31c-4.875,0-8.828-3.952-8.828-8.828v-35.31
			C158.897,206.987,162.849,203.034,167.724,203.034z"/>
		<path style="fill:#ECF0F1;" d="M353.103,256h-44.138v-52.966h44.138c4.875,0,8.828,3.952,8.828,8.828v35.31
			C361.931,252.048,357.979,256,353.103,256z"/>
	</g>
	<path style="fill:#CBB292;" d="M370.759,399.413l0,15.484h-220.69l0-16.499c-0.051-14.875,7.977-28.606,20.966-35.858
		l44.738-24.797c5.916-3.287,9.57-9.537,9.534-16.305v-11.741c0.005-1.1-0.348-2.173-1.006-3.054
		c-9.779-11.508-17.025-24.947-21.266-39.442v-71.3c0,0-3.761-45.833,57.379-45.833s57.379,45.833,57.379,45.833v71.3
		c-4.24,14.495-11.486,27.934-21.266,39.442c-0.658,0.882-1.011,1.954-1.006,3.054v12.253c-0.035,6.98,3.841,13.391,10.037,16.605
		l42.982,24.258C362.234,369.87,370.817,384.007,370.759,399.413z"/>
	<path style="fill:#2C2F38;" d="M185.379,256v17.655c0,4.875,3.952,8.828,8.828,8.828h70.621c4.875,0,8.828,3.952,8.828,8.828
		s-3.952,8.828-8.828,8.828h-70.621c-14.626,0-26.483-11.857-26.483-26.483V256H185.379z"/>
</g>
<g>
</g>
<g>
</g>
<g>
</g>
<g>
</g>
<g>
</g>
<g>
</g>
<g>
</g>
<g>
</g>
<g>
</g>
<g>
</g>
<g>
</g>
<g>
</g>
<g>
</g>
<g>
</g>
<g>
</g>
</svg>
