<?xml version="1.0"?>
<svg xmlns="http://www.w3.org/2000/svg" xmlns:xlink="http://www.w3.org/1999/xlink" xmlns:svgjs="http://svgjs.com/svgjs" version="1.1" width="512" height="512" x="0" y="0" viewBox="0 0 511.999 511" style="enable-background:new 0 0 512 512" xml:space="preserve" class=""><g><path xmlns="http://www.w3.org/2000/svg" d="m397.242188 353.601562h97.101562c9.75 0 17.65625-7.902343 17.65625-17.652343v-317.792969c0-9.753906-7.90625-17.65625-17.65625-17.65625h-476.6875c-9.753906 0-17.65625 7.90625-17.65625 17.65625v317.792969c0 9.75 7.902344 17.652343 17.65625 17.652343zm0 0" fill="#093a12" data-original="#4c8056" style="" class=""/><path xmlns="http://www.w3.org/2000/svg" d="m353.101562 177.050781c0 53.628907-43.472656 97.105469-97.101562 97.105469s-97.101562-43.476562-97.101562-97.105469c0-53.628906 43.472656-97.101562 97.101562-97.101562s97.101562 43.472656 97.101562 97.101562zm0 0" fill="#dd1c06" data-original="#c03a2b" style="" class=""/></g></svg>
