<svg id="Capa_1" enable-background="new 0 0 512 512" height="512" viewBox="0 0 512 512" width="512" xmlns="http://www.w3.org/2000/svg"><g><g><path clip-rule="evenodd" d="m153.753 242.503v26.982c0 4.468 3.621 8.089 8.059 8.089h9.315c2.073 8.118 5.285 15.798 9.461 22.807l-6.599 6.6c-3.124 3.154-3.124 8.293 0 11.418l19.097 19.098c3.124 3.125 8.264 3.125 11.418 0l6.599-6.6c7.008 4.176 14.688 7.388 22.806 9.461v9.315c0 4.439 3.65 8.089 8.089 8.089h26.982c4.439 0 8.089-3.65 8.089-8.089v-9.315c8.118-2.073 15.768-5.285 22.806-9.461l6.599 6.6c3.125 3.125 8.264 3.125 11.418 0l19.097-19.098c3.124-3.125 3.124-8.264 0-11.418l-6.599-6.6c4.176-7.008 7.388-14.688 9.461-22.807h9.315c4.439 0 8.059-3.621 8.059-8.089v-26.982c0-4.439-3.621-8.089-8.059-8.089h-9.315c-2.073-8.118-5.285-15.769-9.461-22.807l6.599-6.6c3.124-3.125 3.124-8.264 0-11.418l-19.097-19.069c-3.154-3.154-8.293-3.154-11.418 0l-6.599 6.57c-7.037-4.176-14.688-7.388-22.806-9.461v-9.315c0-4.439-3.65-8.06-8.089-8.06h-26.982c-4.439 0-8.089 3.621-8.089 8.06v9.315c-8.118 2.073-15.798 5.286-22.806 9.461l-6.599-6.57c-3.124-3.154-8.293-3.154-11.418 0l-19.097 19.069c-3.124 3.154-3.124 8.293 0 11.418l6.599 6.6c-4.176 7.038-7.388 14.688-9.461 22.807h-9.315c-4.438 0-8.059 3.65-8.059 8.089z" fill="#beb9dd" fill-rule="evenodd"/></g><g><path clip-rule="evenodd" d="m268.98 154.256h-22.339c14.805 29.348 23.536 64.653 23.711 102.644v1.256c0 36.648-7.913 70.785-21.609 99.607h20.236c4.439 0 8.089-3.65 8.089-8.089v-9.315c8.118-2.073 15.768-5.285 22.806-9.461l6.599 6.6c3.125 3.125 8.264 3.125 11.418 0l19.097-19.098c3.124-3.125 3.124-8.264 0-11.418l-6.599-6.6c4.176-7.008 7.388-14.688 9.461-22.807h9.315c4.439 0 8.059-3.621 8.059-8.089v-26.982c0-4.439-3.621-8.089-8.059-8.089h-9.315c-2.073-8.118-5.285-15.769-9.461-22.807l6.599-6.6c3.124-3.125 3.124-8.264 0-11.418l-19.097-19.069c-3.154-3.154-8.293-3.154-11.418 0l-6.599 6.57c-7.037-4.176-14.688-7.388-22.806-9.461v-9.315c0-4.439-3.65-8.059-8.088-8.059z" fill="#a7a2d3" fill-rule="evenodd"/></g><g><path d="m243.896 292.659c-1.894 0-3.73-.696-5.151-1.967l-25.726-23.012c-3.181-2.845-3.453-7.729-.608-10.909 2.844-3.18 7.729-3.454 10.909-.608l19.803 17.713 43.754-51.779c2.754-3.259 7.63-3.669 10.888-.914 3.26 2.754 3.669 7.629.914 10.888l-48.882 57.849c-1.347 1.594-3.282 2.575-5.363 2.721-.179.012-.359.018-.538.018z" fill="#2b4d66"/></g><g><path clip-rule="evenodd" d="m74.414 255.994c0-92.569 69.294-168.932 158.824-180.116v17.492 10.367c.204 11.038 10.25 15.652 18.134 10.483l39.328-28.859-16.743-39.144-40.719-26.027v2.774 10.717.292c-110.087 11.127-196.551 102.265-200.318 214.341v15.36c2.365 70.026 36.998 131.875 89.472 171.122 31.07 23.245 54.43-14.893 24.558-33.64-44.036-33.115-72.536-85.795-72.536-145.162z" fill="#75cef8" fill-rule="evenodd"/></g><g><path clip-rule="evenodd" d="m260.482 397.768-47.276 34.692-15.535 11.418c-8.731 5.256-8.731 14.659 0 19.916l15.301 11.243 11.622 8.527 35.888 26.34c7.884 5.14 17.929.526 18.134-10.483v-10.367-5.49-5.548c14.075-1.42 27.763-4.148 40.942-8.061l17.79-25.389-3.925-24.376c-16.989 8.033-35.424 13.506-54.807 15.921v-17.492-10.367c-.204-11.009-10.249-15.623-18.134-10.484z" fill="#75cef8" fill-rule="evenodd"/></g><g><path clip-rule="evenodd" d="m233.238 20.191c21.55 14.747 41.027 37.086 57.467 65.178l7.943-5.84 15.535-11.418c8.731-5.256 8.731-14.659 0-19.916l-15.301-11.213-4.468-3.3-43.042-31.567c-7.884-5.169-17.929-.555-18.134 10.483z" fill="#60b7ff" fill-rule="evenodd"/></g><g><path clip-rule="evenodd" d="m364.584 110.599c44.239 33.085 72.856 85.911 72.856 145.395 0 72.537-42.517 135.116-104.014 164.201-3.621 17.317-8.059 33.874-13.257 49.584 91.924-27.596 158.911-112.865 158.911-213.786 0-71.603-33.727-135.35-86.201-176.174-28.091-23.535-53.934 11.448-28.295 30.78z" fill="#60b7ff" fill-rule="evenodd"/></g></g></svg>