<?xml version="1.0"?>
<svg xmlns="http://www.w3.org/2000/svg" xmlns:xlink="http://www.w3.org/1999/xlink" xmlns:svgjs="http://svgjs.com/svgjs" version="1.1" width="512" height="512" x="0" y="0" viewBox="0 0 96 96" style="enable-background:new 0 0 512 512" xml:space="preserve" class=""><g><path xmlns="http://www.w3.org/2000/svg" d="m32 48c0-8.271-6.729-15-15-15s-15 6.729-15 15 6.729 15 15 15 15-6.729 15-15zm-16 12v.949c-6.37-.488-11.461-5.579-11.949-11.949h.949c.553 0 1-.447 1-1s-.447-1-1-1h-.949c.488-6.37 5.579-11.461 11.949-11.949v.949c0 .553.447 1 1 1s1-.447 1-1v-.949c6.37.488 11.461 5.579 11.949 11.949h-.949c-.553 0-1 .447-1 1s.447 1 1 1h.949c-.488 6.37-5.579 11.461-11.949 11.949v-.949c0-.553-.447-1-1-1s-1 .447-1 1z" fill="#ffd018" data-original="#000000" style="" class=""/><path xmlns="http://www.w3.org/2000/svg" d="m57 56c.553 0 1-.447 1-1v-2c0-3.286-2.28-6.044-5.339-6.793 1.431-1.282 2.339-3.139 2.339-5.207 0-3.859-3.141-7-7-7s-7 3.141-7 7c0 2.068.908 3.925 2.339 5.207-3.059.749-5.339 3.507-5.339 6.793v6c0 .553.447 1 1 1h18c.553 0 1-.447 1-1s-.447-1-1-1h-17v-5c0-2.251 1.506-4.138 3.556-4.762l3.576 6.258c.178.312.51.504.868.504s.69-.192.868-.504l3.576-6.258c2.05.624 3.556 2.511 3.556 4.762v2c0 .553.447 1 1 1zm-9-4.016-2.277-3.984h4.554zm0-5.984c-2.757 0-5-2.243-5-5s2.243-5 5-5 5 2.243 5 5-2.243 5-5 5z" fill="#ffd018" data-original="#000000" style="" class=""/><path xmlns="http://www.w3.org/2000/svg" d="m70.249 77.558c-.259.195-.521.387-.784.575-.45.32-.555.944-.234 1.395.195.274.503.42.815.42.2 0 .403-.061.579-.186.279-.198.555-.401.829-.608.44-.332.528-.959.195-1.4s-.96-.531-1.4-.196z" fill="#ffd018" data-original="#000000" style="" class=""/><path xmlns="http://www.w3.org/2000/svg" d="m66.178 80.226c-.281.16-.564.315-.851.467-.488.259-.675.864-.416 1.352.18.339.526.532.885.532.158 0 .318-.037.467-.116.304-.161.604-.326.903-.496.48-.273.648-.884.375-1.363-.274-.482-.887-.65-1.363-.376z" fill="#ffd018" data-original="#000000" style="" class=""/><path xmlns="http://www.w3.org/2000/svg" d="m77.172 70.751c-.199.257-.402.509-.608.758-.352.427-.291 1.057.135 1.408.187.153.412.229.636.229.289 0 .574-.124.772-.363.218-.265.433-.532.644-.803.34-.437.261-1.064-.175-1.403-.436-.342-1.065-.261-1.404.174z" fill="#ffd018" data-original="#000000" style="" class=""/><path xmlns="http://www.w3.org/2000/svg" d="m73.933 74.381c-.23.228-.464.452-.701.673-.404.376-.427 1.009-.05 1.413.197.212.464.318.731.318.244 0 .489-.089.682-.269.251-.234.5-.471.744-.712.393-.389.396-1.021.009-1.415-.39-.39-1.022-.396-1.415-.008z" fill="#ffd018" data-original="#000000" style="" class=""/><path xmlns="http://www.w3.org/2000/svg" d="m81.277 66.371c-.477-.28-1.09-.12-1.368.356-.164.279-.332.557-.504.83-.293.469-.151 1.086.316 1.379.165.104.349.152.53.152.333 0 .658-.166.849-.469.182-.291.359-.584.533-.881.28-.475.121-1.088-.356-1.367z" fill="#ffd018" data-original="#000000" style="" class=""/><path xmlns="http://www.w3.org/2000/svg" d="m15.308 65.327c-.26-.489-.867-.676-1.352-.416-.488.259-.675.864-.416 1.352.161.304.326.604.496.903.185.324.522.506.87.506.168 0 .338-.042.493-.131.48-.273.648-.884.375-1.363-.16-.282-.315-.565-.466-.851z" fill="#ffd018" data-original="#000000" style="" class=""/><path xmlns="http://www.w3.org/2000/svg" d="m24.491 76.563c-.428-.352-1.057-.29-1.408.135-.352.427-.291 1.057.135 1.408.265.218.532.433.803.644.183.143.399.211.613.211.298 0 .593-.133.79-.386.339-.437.261-1.064-.175-1.403-.257-.199-.509-.402-.758-.609z" fill="#ffd018" data-original="#000000" style="" class=""/><path xmlns="http://www.w3.org/2000/svg" d="m17.867 69.465c-.32-.45-.944-.554-1.395-.234-.45.32-.555.944-.234 1.395.198.279.401.555.608.829.196.261.495.397.799.397.21 0 .421-.065.602-.202.44-.332.528-.959.195-1.4-.195-.26-.386-.521-.575-.785z" fill="#ffd018" data-original="#000000" style="" class=""/><path xmlns="http://www.w3.org/2000/svg" d="m29.629 81.277c.279-.477.12-1.089-.356-1.368-.279-.164-.557-.332-.83-.504-.467-.293-1.084-.151-1.379.316-.293.469-.151 1.086.316 1.379.291.182.584.359.881.533.159.094.333.138.505.138.342 0 .677-.176.863-.494z" fill="#ffd018" data-original="#000000" style="" class=""/><path xmlns="http://www.w3.org/2000/svg" d="m20.946 73.231c-.378-.406-1.01-.426-1.413-.05-.404.376-.427 1.009-.05 1.413.234.251.471.5.712.744.196.197.454.297.712.297.254 0 .508-.096.703-.288.393-.389.396-1.021.009-1.415-.227-.23-.452-.463-.673-.701z" fill="#ffd018" data-original="#000000" style="" class=""/><path xmlns="http://www.w3.org/2000/svg" d="m29.737 13.54c-.304.161-.604.326-.903.496-.48.273-.648.884-.375 1.363.185.324.522.506.87.506.168 0 .338-.042.493-.131.281-.16.564-.315.851-.467.488-.259.675-.864.416-1.352-.259-.487-.868-.674-1.352-.415z" fill="#ffd018" data-original="#000000" style="" class=""/><path xmlns="http://www.w3.org/2000/svg" d="m25.375 16.238c-.279.198-.555.401-.829.608-.44.332-.528.959-.195 1.4.196.261.495.397.799.397.21 0 .421-.065.602-.202.259-.195.521-.387.784-.575.45-.32.555-.944.234-1.395s-.944-.552-1.395-.233z" fill="#ffd018" data-original="#000000" style="" class=""/><path xmlns="http://www.w3.org/2000/svg" d="m14.899 27.38c-.182.291-.359.584-.533.881-.279.477-.12 1.089.356 1.368.159.094.333.138.505.138.343 0 .678-.177.863-.494.164-.279.332-.557.504-.83.293-.469.151-1.086-.316-1.379s-1.084-.152-1.379.316z" fill="#ffd018" data-original="#000000" style="" class=""/><path xmlns="http://www.w3.org/2000/svg" d="m21.364 21.907c.254 0 .508-.096.703-.288.23-.228.464-.452.701-.673.404-.376.427-1.009.05-1.413s-1.01-.427-1.413-.05c-.251.234-.5.471-.744.712-.393.389-.396 1.021-.009 1.415.197.198.454.297.712.297z" fill="#ffd018" data-original="#000000" style="" class=""/><path xmlns="http://www.w3.org/2000/svg" d="m17.894 23.218c-.218.265-.433.532-.644.803-.34.437-.261 1.064.175 1.403.183.143.399.211.613.211.298 0 .593-.133.79-.386.199-.257.402-.509.608-.758.352-.427.291-1.057-.135-1.408-.426-.352-1.055-.29-1.407.135z" fill="#ffd018" data-original="#000000" style="" class=""/><path xmlns="http://www.w3.org/2000/svg" d="m67.739 14.366c-.477-.281-1.089-.12-1.368.356s-.12 1.089.356 1.368c.279.164.557.332.83.504.165.104.349.152.53.152.333 0 .658-.166.849-.469.293-.469.151-1.086-.316-1.379-.291-.18-.584-.358-.881-.532z" fill="#ffd018" data-original="#000000" style="" class=""/><path xmlns="http://www.w3.org/2000/svg" d="m80.226 29.822c.16.281.315.564.467.851.18.339.526.532.885.532.158 0 .318-.037.467-.116.488-.259.675-.864.416-1.352-.161-.304-.326-.604-.496-.903-.274-.481-.888-.647-1.363-.375-.482.273-.65.884-.376 1.363z" fill="#ffd018" data-original="#000000" style="" class=""/><path xmlns="http://www.w3.org/2000/svg" d="m70.576 17.425c-.339.437-.261 1.064.175 1.403.257.199.509.402.758.608.187.153.412.229.636.229.289 0 .574-.124.772-.363.352-.427.291-1.057-.135-1.408-.265-.218-.532-.433-.803-.644-.436-.341-1.064-.259-1.403.175z" fill="#ffd018" data-original="#000000" style="" class=""/><path xmlns="http://www.w3.org/2000/svg" d="m78.133 26.535c.195.274.503.42.815.42.2 0 .403-.061.579-.186.45-.32.555-.944.234-1.395-.198-.279-.401-.555-.608-.829-.333-.441-.959-.531-1.4-.195-.44.332-.528.959-.195 1.4.195.26.386.521.575.785z" fill="#ffd018" data-original="#000000" style="" class=""/><path xmlns="http://www.w3.org/2000/svg" d="m74.39 20.652c-.393.389-.396 1.021-.009 1.415.228.23.452.464.673.701.197.212.464.318.731.318.244 0 .489-.089.682-.269.404-.376.427-1.009.05-1.413-.234-.251-.471-.5-.712-.744-.39-.389-1.022-.395-1.415-.008z" fill="#ffd018" data-original="#000000" style="" class=""/><path xmlns="http://www.w3.org/2000/svg" d="m42.293 12.707c.195.195.451.293.707.293s.512-.098.707-.293l4-4c.391-.391.391-1.023 0-1.414s-1.023-.391-1.414 0l-3.293 3.293-1.293-1.293c-.391-.391-1.023-.391-1.414 0s-.391 1.023 0 1.414z" fill="#ffd018" data-original="#000000" style="" class=""/><path xmlns="http://www.w3.org/2000/svg" d="m40.293 17.707 2 2c.195.195.451.293.707.293s.512-.098.707-.293l4-4c.391-.391.391-1.023 0-1.414s-1.023-.391-1.414 0l-3.293 3.293-1.293-1.293c-.391-.391-1.023-.391-1.414 0s-.391 1.023 0 1.414z" fill="#ffd018" data-original="#000000" style="" class=""/><path xmlns="http://www.w3.org/2000/svg" d="m50 11h8c.553 0 1-.447 1-1s-.447-1-1-1h-8c-.553 0-1 .447-1 1s.447 1 1 1z" fill="#ffd018" data-original="#000000" style="" class=""/><path xmlns="http://www.w3.org/2000/svg" d="m50 19h8c.553 0 1-.447 1-1s-.447-1-1-1h-8c-.553 0-1 .447-1 1s.447 1 1 1z" fill="#ffd018" data-original="#000000" style="" class=""/><path xmlns="http://www.w3.org/2000/svg" d="m40.293 24.707 2 2c.195.195.451.293.707.293s.512-.098.707-.293l4-4c.391-.391.391-1.023 0-1.414s-1.023-.391-1.414 0l-3.293 3.293-1.293-1.293c-.391-.391-1.023-.391-1.414 0s-.391 1.023 0 1.414z" fill="#ffd018" data-original="#000000" style="" class=""/><path xmlns="http://www.w3.org/2000/svg" d="m50 26h8c.553 0 1-.447 1-1s-.447-1-1-1h-8c-.553 0-1 .447-1 1s.447 1 1 1z" fill="#ffd018" data-original="#000000" style="" class=""/><path xmlns="http://www.w3.org/2000/svg" d="m18 48v-8c0-.553-.447-1-1-1s-1 .447-1 1v7.586l-3.707 3.707c-.391.391-.391 1.023 0 1.414.195.195.451.293.707.293s.512-.098.707-.293l4-4c.188-.187.293-.441.293-.707z" fill="#ffd018" data-original="#000000" style="" class=""/><path xmlns="http://www.w3.org/2000/svg" d="m91.622 37.587c-1.553-1.668-3.622-2.587-5.828-2.587s-4.275.919-5.828 2.587l-.966 1.039-.966-1.039c-1.553-1.668-3.622-2.587-5.828-2.587s-4.275.919-5.828 2.588c-3.158 3.395-3.158 8.92.001 12.315l11.889 12.778c.189.204.455.319.732.319s.543-.115.732-.318l11.89-12.779c3.158-3.395 3.158-8.921 0-12.316zm-1.464 10.953-11.158 11.992-11.157-11.991c-2.46-2.645-2.46-6.947 0-9.591 1.17-1.258 2.72-1.95 4.363-1.95s3.193.692 4.363 1.95l1.698 1.825c.379.406 1.086.406 1.465 0l1.698-1.825c1.17-1.258 2.72-1.95 4.363-1.95s3.193.692 4.363 1.949c2.461 2.645 2.461 6.947.002 9.591z" fill="#ffd018" data-original="#000000" style="" class=""/><path xmlns="http://www.w3.org/2000/svg" d="m83.039 50.318-3.722 4c-.376.405-.354 1.037.051 1.414.194.179.438.268.682.268.268 0 .535-.107.732-.318l3.722-4c.376-.405.354-1.037-.051-1.414-.404-.374-1.036-.352-1.414.05z" fill="#ffd018" data-original="#000000" style="" class=""/><path xmlns="http://www.w3.org/2000/svg" d="m86.268 46.849-1 1.074c-.376.404-.354 1.037.051 1.414.193.179.438.268.682.268.268 0 .535-.107.732-.318l1-1.074c.376-.404.354-1.037-.051-1.414-.405-.375-1.036-.353-1.414.05z" fill="#ffd018" data-original="#000000" style="" class=""/><path xmlns="http://www.w3.org/2000/svg" d="m35 23c.553 0 1-.447 1-1v-1c0-.553-.447-1-1-1s-1 .447-1 1v1c0 .553.447 1 1 1z" fill="#ffd018" data-original="#000000" style="" class=""/><path xmlns="http://www.w3.org/2000/svg" d="m64 31v-23c0-.266-.105-.52-.293-.707l-5-5c-.187-.188-.441-.293-.707-.293h-23c-.553 0-1 .447-1 1v14c0 .553.447 1 1 1s1-.447 1-1v-13h21.586l4.414 4.414v21.586h-26v-4c0-.553-.447-1-1-1s-1 .447-1 1v5c0 .553.447 1 1 1h28c.553 0 1-.447 1-1z" fill="#ffd018" data-original="#000000" style="" class=""/><circle xmlns="http://www.w3.org/2000/svg" cx="17" cy="56" r="1" fill="#ffd018" data-original="#000000" style="" class=""/><circle xmlns="http://www.w3.org/2000/svg" cx="21" cy="56" r="1" fill="#ffd018" data-original="#000000" style="" class=""/><circle xmlns="http://www.w3.org/2000/svg" cx="13" cy="56" r="1" fill="#ffd018" data-original="#000000" style="" class=""/><path xmlns="http://www.w3.org/2000/svg" d="m64 87c-.552 0-1-.448-1-1v-7c0-5.274-3.733-9.689-8.694-10.753.437-.641.694-1.414.694-2.247v-3c0-.553-.447-1-1-1h-12c-.553 0-1 .447-1 1v3c0 .833.257 1.606.694 2.247-4.961 1.064-8.694 5.479-8.694 10.753v7c0 .552-.448 1-1 1-1.654 0-3 1.346-3 3s1.346 3 3 3h12c.553 0 1-.447 1-1s-.447-1-1-1h-12c-.552 0-1-.448-1-1s.448-1 1-1c1.654 0 3-1.346 3-3v-7c0-4.963 4.037-9 9-9h1 6 1c4.963 0 9 4.037 9 9v7c0 1.654 1.346 3 3 3 .552 0 1 .448 1 1s-.448 1-1 1h-15v-2c2.206 0 4-1.794 4-4s-1.794-4-4-4h-2c-1.103 0-2-.897-2-2s.897-2 2-2h2c1.103 0 2 .897 2 2 0 .553.447 1 1 1s1-.447 1-1c0-2.206-1.794-4-4-4v-1c0-.553-.447-1-1-1s-1 .447-1 1v1c-2.206 0-4 1.794-4 4s1.794 4 4 4h2c1.103 0 2 .897 2 2s-.897 2-2 2h-2c-1.103 0-2-.897-2-2 0-.553-.447-1-1-1s-1 .447-1 1c0 2.206 1.794 4 4 4v3c0 .553.447 1 1 1h16c1.654 0 3-1.346 3-3s-1.346-3-3-3zm-11-21c0 1.103-.897 2-2 2h-6c-1.103 0-2-.897-2-2v-2h10z" fill="#ffd018" data-original="#000000" style="" class=""/></g></svg>
