<svg height="512" viewBox="0 0 64 64" width="512" xmlns="http://www.w3.org/2000/svg"><g id="flat"><path d="m59 51h-54l-2-2v-44a2 2 0 0 1 2-2h54a2 2 0 0 1 2 2v44z" fill="#7fcac9"/><path d="m19 39h-12v-16h6l6 6z" fill="#d8d7c3"/><path d="m19 29h-6v-6z" fill="#efeedc"/><path d="m23 23h-12v-16h6l6 6z" fill="#f4f4e6"/><path d="m23 13h-6v-6z" fill="#d8d7c3"/><path d="m25 51h14v6h-14z" fill="#394d5c"/><path d="m16 57h32v4h-32z" fill="#7d8d9c"/><path d="m3 43h58a0 0 0 0 1 0 0v6a2 2 0 0 1 -2 2h-54a2 2 0 0 1 -2-2v-6a0 0 0 0 1 0 0z" fill="#7d8d9c"/><path d="m31 46h2v2h-2z" fill="#f4f4e6"/><path d="m30.641 32.658-1.5-1.316.753.658-.754-.657c.261-.3 6.326-7.455 0-14.685l1.5-1.316c7.491 8.558.077 17.23.001 17.316z" fill="#ffd782"/><path d="m27.6 29.707-1.414-1.414.707.707-.71-.7c.437-.442 4.149-4.441 0-8.588l1.417-1.419c4.51 4.515 1.97 9.44 0 11.414z" fill="#ffd782"/><path d="m47 12a11 11 0 1 0 11 11 11.013 11.013 0 0 0 -11-11zm-2.606 2.386a17.324 17.324 0 0 0 -2.639 4.614h-2.815a9.044 9.044 0 0 1 5.454-4.614zm-6.394 8.614a8.971 8.971 0 0 1 .233-2h2.967a10.251 10.251 0 0 0 0 4h-2.967a8.971 8.971 0 0 1 -.233-2zm.94 4h2.815a17.324 17.324 0 0 0 2.639 4.614 9.044 9.044 0 0 1 -5.454-4.614zm7.06 3.417a16.08 16.08 0 0 1 -2.091-3.417h2.091zm0-5.417h-2.762a8.5 8.5 0 0 1 0-4h2.762zm0-6h-2.088a16.132 16.132 0 0 1 2.088-3.41zm2-3.417a16.08 16.08 0 0 1 2.091 3.417h-2.091zm0 5.417h2.762a8.5 8.5 0 0 1 0 4h-2.762zm0 6h2.088a16.132 16.132 0 0 1 -2.088 3.41zm1.606 4.614a17.324 17.324 0 0 0 2.639-4.614h2.815a9.044 9.044 0 0 1 -5.454 4.614zm6.394-8.614a8.971 8.971 0 0 1 -.233 2h-2.967a10.251 10.251 0 0 0 0-4h2.964a8.971 8.971 0 0 1 .236 2zm-3.755-4a17.324 17.324 0 0 0 -2.639-4.614 9.044 9.044 0 0 1 5.454 4.614z" fill="#f4f4e6"/></g></svg>